<?xml version="1.0" standalone="no"?>
<!DOCTYPE svg PUBLIC "-//W3C//DTD SVG 20010904//EN"
 "http://www.w3.org/TR/2001/REC-SVG-20010904/DTD/svg10.dtd">
<svg version="1.0" xmlns="http://www.w3.org/2000/svg"
 width="1254.000000pt" height="1254.000000pt" viewBox="0 0 1254.000000 1254.000000"
 preserveAspectRatio="xMidYMid meet">

<g transform="translate(0.000000,1254.000000) scale(0.100000,-0.100000)"
fill="#000000" stroke="none">
<path d="M6278 9947 c-63 -108 -70 -175 -27 -258 24 -48 36 -55 59 -34 35 32
63 123 56 185 -5 53 -32 147 -45 162 -4 5 -23 -20 -43 -55z m53 -39 c20 -71
16 -129 -10 -186 -14 -29 -28 -52 -32 -52 -19 0 -42 92 -36 145 5 51 41 135
58 135 5 0 14 -19 20 -42z"/>
<path d="M5930 9797 c0 -34 40 -140 65 -173 28 -36 77 -64 115 -64 43 0 15
115 -42 166 -12 12 -49 36 -80 54 -44 24 -58 28 -58 17z m140 -106 c26 -31 48
-96 36 -108 -10 -10 -74 29 -95 58 -21 28 -51 100 -51 121 0 16 82 -36 110
-71z"/>
<path d="M6594 9675 c-101 -46 -164 -119 -164 -191 0 -47 80 -24 145 42 35 35
100 156 93 174 -2 4 -35 -7 -74 -25z m23 -48 c-21 -48 -85 -117 -126 -134 -18
-8 -35 -12 -38 -9 -8 8 34 91 58 113 27 24 111 74 117 69 2 -2 -3 -20 -11 -39z"/>
<path d="M6267 9563 c-11 -11 -8 -413 3 -413 6 0 10 77 10 210 0 116 -1 210
-3 210 -2 0 -7 -3 -10 -7z"/>
<path d="M6170 9501 c0 -15 51 -101 61 -101 9 0 -1 31 -26 80 -15 28 -35 41
-35 21z"/>
<path d="M5850 9482 c0 -14 56 -96 81 -119 45 -41 134 -59 145 -29 9 23 -26
84 -60 105 -41 25 -166 58 -166 43z m171 -78 c31 -30 38 -64 14 -64 -34 0 -83
29 -113 68 -18 22 -32 42 -32 45 0 14 107 -26 131 -49z"/>
<path d="M7490 9469 c-8 -4 -40 -20 -70 -33 -100 -46 -160 -113 -160 -180 0
-92 168 10 224 134 29 65 31 93 6 79z m-29 -78 c-37 -73 -96 -127 -158 -146
-19 -5 -23 -3 -23 16 0 48 76 128 152 159 44 17 50 12 29 -29z"/>
<path d="M5335 9405 c-24 -89 -24 -154 1 -196 27 -47 58 -50 80 -7 28 54 22
128 -16 203 -18 36 -36 65 -40 65 -4 0 -15 -29 -25 -65z m55 -27 c11 -24 20
-64 20 -90 0 -47 -16 -98 -31 -98 -17 0 -39 60 -39 106 0 43 18 124 27 124 2
0 13 -19 23 -42z"/>
<path d="M7022 9420 c-62 -95 -74 -143 -50 -211 19 -56 36 -61 72 -23 41 45
51 102 36 200 -7 46 -16 84 -19 84 -4 0 -21 -23 -39 -50z m42 -69 c7 -63 -7
-116 -41 -153 -23 -26 -33 -7 -33 62 0 40 7 69 26 107 15 29 30 50 34 48 4 -3
10 -31 14 -64z"/>
<path d="M4960 9414 c0 -19 46 -120 71 -155 33 -47 147 -97 163 -71 2 4 0 29
-6 55 -8 37 -20 56 -60 92 -28 25 -54 45 -59 45 -5 0 -32 11 -59 24 -38 18
-50 21 -50 10z m125 -73 c47 -32 85 -84 85 -118 0 -23 0 -23 -37 -8 -21 9 -46
23 -57 33 -25 22 -76 102 -76 120 0 18 34 8 85 -27z"/>
<path d="M6350 9328 c-47 -103 -55 -128 -40 -128 7 0 15 10 18 22 3 13 23 57
44 99 41 83 43 89 27 89 -6 0 -28 -37 -49 -82z"/>
<path d="M5632 9274 c-23 -31 -47 -74 -53 -96 -13 -49 -4 -111 20 -132 17 -16
20 -14 49 19 42 47 54 99 46 190 -4 41 -10 75 -14 75 -4 0 -25 -25 -48 -56z
m34 -130 c-4 -17 -17 -45 -31 -63 l-24 -34 -7 27 c-12 50 2 123 32 168 l29 43
3 -55 c2 -30 1 -69 -2 -86z"/>
<path d="M6160 9237 c0 -17 27 -54 34 -46 7 7 -16 59 -26 59 -5 0 -8 -6 -8
-13z"/>
<path d="M6632 9193 c-41 -65 -52 -96 -52 -152 0 -59 16 -107 38 -116 25 -9
63 37 78 96 13 48 12 64 -3 137 -9 45 -20 82 -24 82 -4 0 -21 -21 -37 -47z
m45 -85 c6 -71 -6 -125 -36 -152 -18 -17 -20 -16 -31 20 -7 20 -10 55 -8 79 6
50 48 139 60 127 5 -5 11 -38 15 -74z"/>
<path d="M7115 9115 c-44 -41 -76 -77 -72 -81 4 -4 39 21 79 56 40 35 77 67
83 72 6 5 6 11 0 17 -6 6 -41 -19 -90 -64z"/>
<path d="M5246 9121 c-6 -10 31 -47 40 -39 6 7 -17 48 -28 48 -4 0 -9 -4 -12
-9z"/>
<path d="M6210 9125 c0 -12 24 -55 32 -55 11 0 10 17 -2 41 -9 17 -30 27 -30
14z"/>
<path d="M5387 9093 c-3 -4 -1 -28 3 -53 5 -25 9 -49 10 -53 0 -5 5 -5 10 -2
7 4 8 25 4 53 -6 48 -18 70 -27 55z"/>
<path d="M6945 9043 c-11 -32 -35 -77 -52 -101 -31 -40 -41 -62 -27 -62 12 0
84 62 84 72 0 6 -6 5 -15 -2 -10 -8 -6 6 10 38 28 56 42 112 28 112 -5 0 -18
-26 -28 -57z"/>
<path d="M7287 9066 c-20 -7 -44 -19 -52 -26 -36 -30 44 -82 126 -82 48 0 179
39 179 53 0 11 -128 59 -173 64 -24 3 -59 -1 -80 -9z m156 -33 c20 -8 37 -18
37 -23 0 -11 -73 -30 -118 -30 -39 0 -112 26 -112 40 0 4 21 14 48 23 49 17
82 14 145 -10z"/>
<path d="M6260 8915 c0 -90 4 -145 10 -145 6 0 10 55 10 145 0 90 -4 145 -10
145 -6 0 -10 -55 -10 -145z"/>
<path d="M5320 9032 c0 -14 49 -56 57 -49 3 4 -4 18 -17 32 -24 25 -40 32 -40
17z"/>
<path d="M5035 9005 c-62 -17 -105 -33 -105 -40 0 -10 120 -65 157 -71 47 -7
114 9 136 34 16 17 16 20 -6 40 -22 21 -97 53 -121 51 -6 0 -33 -6 -61 -14z
m150 -41 l28 -18 -39 -18 c-46 -22 -97 -17 -157 14 -41 21 -41 21 -17 30 76
29 133 26 185 -8z"/>
<path d="M7095 9010 c-58 -12 -97 -29 -91 -39 3 -5 26 -3 53 4 27 7 60 16 76
19 15 4 27 11 27 16 0 11 -8 11 -65 0z"/>
<path d="M6037 8973 c-3 -5 23 -39 58 -77 79 -87 94 -72 17 17 -57 66 -67 74
-75 60z"/>
<path d="M5576 8920 c-8 -61 2 -150 18 -150 8 0 10 31 8 100 -4 108 -15 131
-26 50z"/>
<path d="M5410 8953 c0 -5 10 -24 22 -43 25 -41 36 -25 13 19 -14 28 -35 42
-35 24z"/>
<path d="M5310 8910 c0 -6 12 -15 28 -21 43 -16 125 -60 145 -77 9 -8 20 -12
25 -8 10 11 -33 43 -110 82 -71 36 -88 40 -88 24z"/>
<path d="M5877 8880 c-45 -129 -50 -208 -14 -261 30 -45 52 -48 71 -10 28 53
21 137 -18 216 -21 43 -36 64 -39 55z m44 -125 c12 -45 7 -131 -9 -147 -14
-14 -42 31 -49 81 -3 22 0 63 7 92 12 48 14 51 27 33 7 -10 18 -36 24 -59z"/>
<path d="M6577 8737 c-16 -61 -30 -124 -32 -139 -2 -15 -12 -40 -24 -57 -12
-16 -17 -32 -12 -35 5 -4 20 8 32 26 13 18 45 58 71 89 63 73 61 100 -2 30
l-49 -53 24 75 c27 84 42 177 29 177 -5 0 -22 -51 -37 -113z"/>
<path d="M6735 8780 c-33 -34 -53 -60 -44 -60 14 0 119 99 119 113 0 17 -19 3
-75 -53z"/>
<path d="M6183 8788 c3 -7 18 -42 33 -78 31 -77 32 -78 40 -57 7 20 -50 147
-67 147 -6 0 -9 -6 -6 -12z"/>
<path d="M5604 8714 c4 -12 1 -14 -14 -9 -11 4 -20 2 -20 -2 0 -14 59 -67 66
-60 10 10 -15 87 -27 87 -6 0 -8 -7 -5 -16z"/>
<path d="M7294 8650 c-73 -35 -130 -95 -140 -144 -9 -52 0 -70 34 -62 58 14
106 59 144 136 37 74 45 100 31 100 -5 0 -36 -14 -69 -30z m21 -56 c-9 -22
-28 -52 -43 -67 -34 -37 -102 -73 -102 -55 1 22 36 92 56 109 21 19 97 59 102
54 2 -1 -4 -20 -13 -41z"/>
<path d="M5080 8654 c0 -16 55 -112 78 -138 29 -31 79 -56 112 -56 15 0 20 7
20 25 0 61 -50 113 -147 153 -55 24 -63 25 -63 16z m123 -71 c34 -21 76 -87
64 -99 -8 -8 -62 17 -85 39 -13 12 -33 39 -44 60 l-19 39 23 -7 c13 -4 40 -18
61 -32z"/>
<path d="M6925 8624 c-63 -42 -96 -76 -116 -119 -24 -51 -25 -113 -2 -122 25
-10 84 27 107 67 22 37 69 200 58 200 -4 0 -25 -12 -47 -26z m10 -56 c-12 -58
-41 -113 -74 -141 -18 -15 -37 -27 -42 -27 -13 0 -11 46 5 83 13 32 93 117
109 117 5 0 6 -15 2 -32z"/>
<path d="M6268 8478 c3 -163 6 -188 23 -171 7 7 7 54 0 149 -6 76 -11 147 -11
157 0 9 -3 17 -7 17 -5 0 -7 -69 -5 -152z"/>
<path d="M5670 8579 c0 -18 58 -80 65 -69 4 6 -6 26 -22 45 -29 35 -43 43 -43
24z"/>
<path d="M5900 8503 c1 -29 32 -147 45 -173 26 -50 28 -28 6 45 -12 37 -21 82
-21 101 0 24 -5 34 -15 34 -8 0 -15 -3 -15 -7z"/>
<path d="M5782 8441 c7 -21 121 -132 131 -128 13 4 -103 135 -121 136 -8 1
-12 -3 -10 -8z"/>
<path d="M4880 8426 c-25 -7 -67 -24 -94 -37 l-48 -26 53 -23 c80 -34 175 -38
234 -10 36 17 45 27 43 43 -7 46 -110 75 -188 53z m135 -30 c19 -8 35 -18 35
-21 0 -12 -86 -45 -121 -45 -37 0 -144 28 -136 36 2 2 28 13 58 24 65 23 118
25 164 6z"/>
<path d="M6415 8358 c-53 -116 -96 -246 -84 -254 13 -8 9 -15 43 91 16 50 44
121 63 158 22 44 32 72 26 78 -6 6 -24 -21 -48 -73z"/>
<path d="M5330 8421 c0 -5 12 -19 28 -30 l27 -20 -112 6 c-139 7 -157 -11 -20
-21 50 -4 109 -9 130 -13 50 -8 50 15 -2 56 -41 33 -51 37 -51 22z"/>
<path d="M7064 8369 c-21 -22 -63 -51 -92 -65 -30 -14 -51 -28 -48 -31 3 -4
23 -8 43 -10 21 -2 57 -13 81 -24 52 -22 52 -22 52 -8 0 5 -23 20 -51 33 l-52
23 60 16 c32 9 96 22 141 29 45 6 82 15 82 20 0 14 -78 7 -199 -18 l-34 -7 38
35 c21 19 34 38 28 41 -5 3 -27 -12 -49 -34z"/>
<path d="M7430 8399 c-68 -28 -71 -68 -8 -94 73 -29 116 -29 206 0 45 14 82
30 82 34 0 5 -28 21 -62 37 -69 31 -173 42 -218 23z m188 -37 c47 -21 47 -23
-11 -42 -55 -17 -125 -14 -177 8 l-45 20 45 21 c54 26 121 23 188 -7z"/>
<path d="M5560 8330 c0 -6 6 -12 13 -14 6 -2 44 -13 83 -25 79 -23 94 -25 94
-11 0 9 -148 60 -176 60 -7 0 -14 -5 -14 -10z"/>
<path d="M6737 8291 c-10 -16 -13 -32 -8 -35 9 -6 41 36 41 54 0 19 -16 10
-33 -19z"/>
<path d="M5390 8270 c-14 -10 -22 -22 -18 -25 8 -8 68 25 68 37 0 14 -24 8
-50 -12z"/>
<path d="M5980 8252 c0 -5 12 -19 26 -33 14 -13 49 -54 77 -91 48 -64 67 -80
67 -60 0 15 -60 94 -108 145 -44 45 -62 56 -62 39z"/>
<path d="M5790 8241 c0 -10 30 -24 37 -17 3 3 2 9 -2 15 -8 13 -35 15 -35 2z"/>
<path d="M5652 8224 c-12 -8 -20 -20 -17 -25 4 -5 17 -1 30 8 41 30 29 46 -13
17z"/>
<path d="M5228 8180 c-20 -11 -48 -35 -62 -53 -30 -40 -89 -163 -84 -177 6
-18 141 55 180 98 38 42 65 109 55 136 -8 21 -44 19 -89 -4z m72 -15 c0 -51
-65 -127 -142 -166 l-40 -20 7 23 c18 58 61 120 103 148 50 33 72 38 72 15z"/>
<path d="M6619 8139 c-95 -65 -122 -90 -110 -102 6 -6 20 1 38 17 15 15 56 46
91 68 34 22 62 47 62 54 0 8 -1 14 -3 14 -2 0 -37 -23 -78 -51z"/>
<path d="M6750 8183 c0 -5 23 -15 50 -24 39 -12 50 -13 50 -3 0 7 -17 18 -37
23 -45 13 -63 14 -63 4z"/>
<path d="M7152 8174 c-20 -23 -6 -78 30 -119 29 -34 174 -112 185 -101 9 9
-25 89 -58 140 -47 70 -129 113 -157 80z m78 -34 c14 -10 35 -29 47 -42 24
-25 57 -97 49 -105 -2 -3 -28 8 -57 24 -35 18 -62 43 -81 72 -35 56 -37 85 -5
75 12 -3 33 -15 47 -24z"/>
<path d="M5889 8176 c-5 -5 156 -176 165 -176 18 0 -2 29 -70 100 -73 76 -85
86 -95 76z"/>
<path d="M5528 8130 c-42 -35 -66 -90 -77 -177 -7 -55 -5 -63 8 -58 30 12 99
70 121 103 40 58 37 162 -4 162 -6 0 -28 -13 -48 -30z m62 -38 c0 -34 -35 -96
-70 -126 -37 -30 -50 -33 -45 -8 2 9 7 34 10 55 4 26 20 54 47 83 43 47 58 45
58 -4z"/>
<path d="M6903 8113 c-20 -8 -15 -72 9 -114 12 -21 47 -57 80 -79 66 -47 67
-45 44 52 -16 69 -37 103 -79 128 -34 21 -35 21 -54 13z m67 -53 c24 -25 58
-116 47 -126 -7 -7 -78 59 -92 86 -35 67 -5 94 45 40z"/>
<path d="M6291 7967 c-13 -75 -14 -127 -3 -127 4 0 13 35 19 78 7 43 13 84 15
91 2 8 -2 15 -8 18 -8 2 -16 -20 -23 -60z"/>
<path d="M6173 7988 c3 -7 13 -43 23 -80 19 -69 34 -88 34 -43 0 33 -39 135
-52 135 -5 0 -7 -6 -5 -12z"/>
<path d="M6420 7944 c-50 -71 -104 -194 -91 -207 7 -7 12 -5 17 9 20 56 66
148 93 188 17 25 27 47 22 51 -6 3 -24 -15 -41 -41z"/>
<path d="M6086 7942 c-3 -5 4 -28 15 -51 11 -23 27 -71 36 -107 18 -74 39 -87
30 -19 -6 43 -50 161 -67 178 -4 5 -10 4 -14 -1z"/>
<path d="M6160 7500 c0 -127 2 -150 15 -150 17 0 18 19 8 188 -3 61 -10 112
-15 112 -4 0 -8 -67 -8 -150z"/>
<path d="M6292 7501 c4 -201 23 -204 23 -4 0 110 -3 147 -13 151 -10 3 -12
-28 -10 -147z"/>
<path d="M6165 7239 c-10 -26 -1 -279 10 -279 14 0 19 270 6 283 -7 7 -12 5
-16 -4z"/>
<path d="M6290 7101 c0 -94 4 -151 10 -151 6 0 11 39 12 93 5 177 3 200 -9
205 -10 3 -13 -31 -13 -147z"/>
<path d="M6162 6715 c2 -88 7 -145 13 -145 6 0 11 57 13 145 2 126 0 145 -13
145 -13 0 -15 -19 -13 -145z"/>
<path d="M6290 6710 c0 -93 4 -150 10 -150 6 0 10 57 10 150 0 93 -4 150 -10
150 -6 0 -10 -57 -10 -150z"/>
<path d="M6166 6458 c-3 -7 -7 -62 -9 -123 -2 -60 -6 -116 -8 -124 -2 -7 1
-15 7 -18 15 -5 22 31 30 158 5 76 4 108 -5 113 -6 4 -13 1 -15 -6z"/>
<path d="M6294 6353 c7 -131 14 -163 33 -163 9 0 12 6 9 18 -10 31 -26 156
-26 205 0 29 -4 47 -11 47 -9 0 -10 -29 -5 -107z"/>
<path d="M6095 6063 c-11 -21 -47 -66 -79 -100 -63 -68 -69 -93 -12 -50 57 44
136 161 119 178 -5 5 -17 -7 -28 -28z"/>
<path d="M6356 6091 c-19 -30 137 -221 162 -197 3 4 -19 32 -50 64 -30 31 -67
77 -81 100 -14 25 -28 39 -31 33z"/>
<path d="M6230 5955 c0 -83 4 -135 10 -135 6 0 10 52 10 135 0 83 -4 135 -10
135 -6 0 -10 -52 -10 -135z"/>
<path d="M5777 5779 c-48 -33 -85 -65 -81 -70 6 -11 3 -12 107 59 43 29 75 57
72 62 -8 13 0 18 -98 -51z"/>
<path d="M6606 5831 c-4 -5 29 -34 71 -63 100 -70 101 -70 107 -59 3 5 -34 36
-83 70 -50 34 -92 57 -95 52z"/>
<path d="M6230 5594 c0 -81 4 -123 10 -119 6 4 10 57 10 126 0 73 -4 119 -10
119 -6 0 -10 -49 -10 -126z"/>
<path d="M5514 5594 c-44 -31 -80 -58 -82 -59 -2 -2 1 -6 6 -9 10 -6 172 102
172 115 0 18 -19 8 -96 -47z"/>
<path d="M6872 5638 c5 -13 156 -118 170 -118 23 0 0 22 -74 74 -84 57 -103
66 -96 44z"/>
<path d="M5272 5438 c-40 -22 -69 -44 -66 -49 3 -6 30 4 62 22 78 43 95 56 85
62 -5 3 -41 -13 -81 -35z"/>
<path d="M7125 5471 c-3 -5 27 -28 66 -50 79 -46 79 -46 79 -28 0 16 -137 90
-145 78z"/>
<path d="M5390 5398 c-27 -48 -37 -78 -26 -78 6 0 76 115 76 124 0 21 -24 -1
-50 -46z"/>
<path d="M7030 5444 c0 -3 18 -32 41 -65 40 -59 57 -71 45 -31 -15 45 -86 125
-86 96z"/>
<path d="M6230 5250 c0 -73 4 -120 10 -120 6 0 10 47 10 120 0 73 -4 120 -10
120 -6 0 -10 -47 -10 -120z"/>
<path d="M5050 5329 c-72 -33 -76 -36 -67 -45 8 -8 157 57 157 68 0 14 -22 8
-90 -23z"/>
<path d="M7340 5351 c0 -13 149 -71 156 -60 3 5 -11 16 -30 24 -20 8 -52 22
-72 30 -42 17 -54 19 -54 6z"/>
<path d="M4814 5236 c-45 -17 -81 -35 -80 -41 1 -12 0 -12 91 22 74 27 92 38
78 45 -4 3 -45 -9 -89 -26z"/>
<path d="M7575 5260 c-4 -6 6 -15 22 -21 123 -48 153 -58 158 -49 4 6 -2 13
-12 17 -10 3 -40 15 -68 26 -27 10 -60 23 -72 28 -13 5 -25 4 -28 -1z"/>
<path d="M5271 5184 c-23 -42 -39 -79 -35 -83 3 -3 11 2 18 13 6 10 28 44 48
76 33 52 37 70 18 70 -3 0 -25 -34 -49 -76z"/>
<path d="M7150 5255 c0 -9 58 -119 73 -140 9 -11 18 -17 22 -13 8 8 -75 158
-87 158 -4 0 -8 -2 -8 -5z"/>
<path d="M4543 5131 c-47 -20 -83 -41 -83 -49 0 -7 3 -12 8 -10 4 2 44 19 90
37 77 33 93 44 75 54 -5 2 -45 -12 -90 -32z"/>
<path d="M7850 5151 c0 -4 33 -22 74 -39 94 -40 91 -39 94 -27 1 6 -32 25 -74
43 -80 34 -94 37 -94 23z"/>
<path d="M4297 5004 c-38 -24 -65 -49 -62 -55 5 -7 14 -5 28 5 12 9 45 30 74
48 29 18 53 36 53 41 0 16 -28 4 -93 -39z"/>
<path d="M8090 5040 c0 -5 4 -10 9 -10 5 0 36 -20 70 -45 67 -49 71 -51 71
-32 0 13 -120 97 -139 97 -6 0 -11 -4 -11 -10z"/>
<path d="M5140 4950 c-40 -80 -47 -100 -32 -100 7 0 92 162 92 175 0 3 -4 5
-10 5 -5 0 -28 -36 -50 -80z"/>
<path d="M6230 4910 c0 -73 4 -120 10 -120 6 0 10 47 10 120 0 73 -4 120 -10
120 -6 0 -10 -47 -10 -120z"/>
<path d="M7287 5024 c-7 -7 74 -174 85 -174 15 0 8 20 -32 100 -42 83 -43 84
-53 74z"/>
<path d="M4159 4877 c-42 -59 -68 -107 -60 -112 9 -5 91 109 91 126 0 16 -14
9 -31 -14z"/>
<path d="M8280 4895 c0 -2 18 -29 39 -60 22 -31 42 -62 44 -68 2 -6 8 -7 15
-3 13 8 1 31 -51 99 -25 32 -47 47 -47 32z"/>
<path d="M5049 4743 c-20 -51 -40 -166 -31 -175 5 -5 19 35 33 92 14 56 21
104 17 106 -4 3 -13 -7 -19 -23z"/>
<path d="M7408 4765 c-3 -3 3 -38 13 -78 10 -39 21 -85 24 -100 3 -15 10 -25
15 -22 11 7 10 11 -15 123 -16 68 -26 88 -37 77z"/>
<path d="M4013 4620 c-43 -81 -50 -100 -34 -100 9 0 91 152 91 169 0 27 -18 5
-57 -69z"/>
<path d="M8417 4693 c-4 -6 12 -45 35 -89 48 -92 46 -89 55 -81 7 7 -37 107
-68 153 -9 14 -19 22 -22 17z"/>
<path d="M6230 4570 c0 -73 4 -120 10 -120 6 0 10 47 10 120 0 73 -4 120 -10
120 -6 0 -10 -47 -10 -120z"/>
<path d="M3878 4549 c-64 -48 -81 -69 -58 -69 15 0 150 107 143 114 -10 10
-15 7 -85 -45z"/>
<path d="M8521 4588 c0 -14 122 -108 139 -108 24 0 6 22 -49 60 -33 22 -63 44
-66 50 -9 14 -25 12 -24 -2z"/>
<path d="M4996 4448 c-3 -13 -7 -56 -10 -95 -4 -59 -2 -73 10 -73 10 0 14 14
14 58 0 31 3 74 6 95 7 40 -12 54 -20 15z"/>
<path d="M7464 4418 c3 -29 6 -74 6 -100 0 -27 5 -48 10 -48 11 0 13 103 4
163 -10 58 -28 45 -20 -15z"/>
<path d="M3897 4384 c-23 -47 -35 -80 -29 -86 8 -8 82 129 82 153 0 26 -20 1
-53 -67z"/>
<path d="M8530 4453 c0 -21 75 -162 82 -155 10 10 -57 162 -72 162 -5 0 -10
-3 -10 -7z"/>
<path d="M3663 4393 c-80 -52 -89 -79 -12 -36 68 39 92 58 88 71 -2 7 -34 -8
-76 -35z"/>
<path d="M8740 4423 c0 -8 143 -103 155 -103 3 0 5 6 5 13 0 6 -31 30 -68 52
-72 43 -92 51 -92 38z"/>
<path d="M6230 4235 c0 -70 4 -115 10 -115 6 0 10 45 10 115 0 70 -4 115 -10
115 -6 0 -10 -45 -10 -115z"/>
<path d="M3493 4288 c-30 -18 -43 -38 -25 -38 14 0 72 40 72 50 0 14 -10 12
-47 -12z"/>
<path d="M8980 4278 c0 -7 34 -31 76 -53 92 -48 94 -49 94 -36 0 8 -152 101
-166 101 -2 0 -4 -6 -4 -12z"/>
<path d="M3288 4178 c-72 -39 -94 -58 -67 -58 18 0 159 80 159 91 0 15 -11 11
-92 -33z"/>
<path d="M4912 4159 c-41 -59 -49 -85 -18 -60 16 14 76 104 76 114 0 20 -21 0
-58 -54z"/>
<path d="M5006 4212 c-8 -14 53 -137 64 -126 6 6 -2 32 -21 69 -34 68 -35 69
-43 57z"/>
<path d="M7450 4207 c0 -8 -11 -36 -25 -63 -29 -58 -29 -54 -11 -54 7 0 23 25
35 56 24 63 25 74 11 74 -5 0 -10 -6 -10 -13z"/>
<path d="M3795 4168 c-52 -131 -55 -138 -42 -138 10 0 77 150 77 173 0 22 -20
1 -35 -35z"/>
<path d="M7510 4202 c0 -4 7 -19 17 -32 42 -64 65 -90 74 -84 5 3 -6 27 -26
54 -19 26 -35 53 -35 59 0 6 -7 11 -15 11 -8 0 -15 -3 -15 -8z"/>
<path d="M8657 4203 c-9 -14 56 -173 70 -173 8 0 4 22 -13 67 -33 87 -50 118
-57 106z"/>
<path d="M9236 4132 c-3 -5 27 -26 67 -48 81 -44 97 -50 97 -36 0 9 -140 92
-154 92 -3 0 -7 -4 -10 -8z"/>
<path d="M4965 4076 c-4 -19 -5 -42 -2 -53 3 -15 6 -13 15 10 14 34 16 77 2
77 -5 0 -12 -15 -15 -34z"/>
<path d="M7490 4066 c0 -33 14 -55 27 -42 9 8 -7 76 -17 76 -6 0 -10 -15 -10
-34z"/>
<path d="M3053 4046 c-40 -23 -73 -47 -73 -53 0 -7 2 -13 4 -13 9 0 146 82
151 90 14 22 -16 13 -82 -24z"/>
<path d="M4762 3987 c-29 -29 -49 -56 -45 -60 7 -8 113 91 113 105 0 18 -18 5
-68 -45z"/>
<path d="M5107 4034 c-7 -7 72 -124 84 -124 15 0 10 11 -28 72 -38 57 -44 63
-56 52z"/>
<path d="M7321 3981 c-43 -63 -47 -71 -31 -71 15 0 91 118 81 125 -6 3 -28
-21 -50 -54z"/>
<path d="M7650 4032 c0 -4 25 -32 55 -62 32 -31 55 -48 55 -39 0 8 -22 36 -48
62 -46 46 -62 56 -62 39z"/>
<path d="M6230 3901 c0 -74 4 -121 10 -121 6 0 10 45 10 114 0 66 -4 117 -10
121 -6 4 -10 -37 -10 -114z"/>
<path d="M9480 3993 c0 -11 151 -96 158 -89 9 9 -6 21 -76 60 -64 36 -82 42
-82 29z"/>
<path d="M2850 3928 c-30 -17 -49 -33 -42 -36 15 -5 102 45 102 58 0 13 3 14
-60 -22z"/>
<path d="M4946 3943 c-13 -47 -17 -103 -8 -103 11 0 17 15 26 72 7 37 -8 63
-18 31z"/>
<path d="M3700 3910 c-7 -25 -26 -54 -53 -79 -23 -22 -38 -43 -34 -47 4 -4 21
6 38 22 l31 29 -7 -32 c-4 -19 -3 -33 3 -33 5 0 19 38 31 85 24 97 24 95 11
95 -5 0 -14 -18 -20 -40z"/>
<path d="M7514 3898 c7 -52 19 -78 28 -61 8 14 -13 113 -24 113 -7 0 -8 -18
-4 -52z"/>
<path d="M8747 3944 c-3 -4 -2 -14 2 -23 5 -9 14 -43 21 -76 13 -59 25 -84 35
-74 6 7 -37 179 -45 179 -4 0 -10 -3 -13 -6z"/>
<path d="M9715 3870 c-3 -4 12 -20 32 -36 21 -16 38 -23 40 -17 3 8 15 8 39 1
31 -8 56 -5 43 5 -15 12 -150 53 -154 47z"/>
<path d="M2663 3846 c-67 -22 -85 -42 -30 -33 46 7 107 34 107 46 0 13 1 13
-77 -13z"/>
<path d="M8810 3831 c0 -13 40 -61 51 -61 17 0 9 26 -14 48 -25 23 -37 28 -37
13z"/>
<path d="M2416 3801 c-28 -3 -51 -12 -54 -20 -3 -10 4 -12 34 -8 22 3 60 9 87
12 26 3 47 10 47 16 0 10 -34 10 -114 0z"/>
<path d="M2642 3787 c-34 -36 -27 -55 8 -22 17 16 30 32 30 37 0 15 -16 8 -38
-15z"/>
<path d="M9950 3802 c0 -6 26 -13 58 -17 31 -3 67 -8 80 -11 15 -3 22 0 22 11
0 8 -8 15 -19 15 -10 0 -46 3 -80 6 -41 5 -61 3 -61 -4z"/>
<path d="M9820 3778 c0 -18 27 -44 37 -34 4 4 -3 16 -15 29 -18 17 -22 18 -22
5z"/>
<path d="M4912 3760 c-5 -14 -13 -40 -17 -57 -3 -18 -12 -33 -19 -33 -14 0
-51 -59 -42 -67 14 -14 76 64 87 109 12 54 7 87 -9 48z"/>
<path d="M7547 3773 c-6 -13 35 -173 44 -173 5 0 9 10 9 22 l0 22 16 -22 c15
-21 34 -30 34 -14 0 4 -15 24 -34 44 -22 23 -37 52 -41 77 -6 39 -19 60 -28
44z"/>
<path d="M3500 3714 c-81 -47 -91 -55 -85 -64 3 -5 34 7 68 27 75 43 70 39 66
52 -2 6 -23 -1 -49 -15z"/>
<path d="M8926 3731 c-3 -5 15 -22 41 -37 27 -15 58 -34 70 -41 12 -8 24 -10
27 -5 3 6 -24 28 -60 51 -72 45 -71 45 -78 32z"/>
<path d="M4940 3711 c0 -27 29 -91 41 -91 6 0 8 6 5 13 -3 6 -11 31 -18 55
-13 43 -28 56 -28 23z"/>
<path d="M7507 3681 c-20 -56 -20 -61 -8 -61 10 0 41 72 41 95 0 30 -16 14
-33 -34z"/>
<path d="M3660 3625 c0 -53 4 -75 13 -75 9 0 11 20 9 75 -5 97 -22 98 -22 0z"/>
<path d="M8796 3629 c-7 -69 -4 -90 11 -75 12 11 17 146 5 146 -5 0 -13 -32
-16 -71z"/>
<path d="M2492 3619 c-40 -43 -58 -69 -48 -69 9 0 16 5 16 10 0 6 5 10 10 10
6 0 3 -11 -6 -25 -9 -14 -14 -28 -11 -31 2 -3 30 32 61 77 32 45 53 85 49 90
-4 4 -37 -24 -71 -62z"/>
<path d="M6230 3575 c0 -63 4 -105 10 -105 6 0 10 42 10 105 0 63 -4 105 -10
105 -6 0 -10 -42 -10 -105z"/>
<path d="M9910 3673 c0 -12 75 -123 84 -123 4 0 5 8 2 17 -5 13 0 11 18 -6 14
-14 29 -21 32 -18 4 4 -23 36 -59 72 -63 62 -77 73 -77 58z"/>
<path d="M3602 3552 c-25 -76 -25 -82 -14 -82 9 0 52 116 52 138 0 32 -18 6
-38 -56z"/>
<path d="M8838 3614 c-5 -4 37 -138 48 -153 2 -1 7 0 12 3 6 3 -1 35 -17 76
-29 75 -34 83 -43 74z"/>
<path d="M5010 3549 c0 -9 53 -112 67 -128 1 -2 6 -1 10 3 4 3 -9 36 -28 71
-32 61 -49 80 -49 54z"/>
<path d="M7420 3500 c-31 -61 -36 -80 -22 -80 7 0 72 122 72 135 0 3 -4 5 -10
5 -5 0 -23 -27 -40 -60z"/>
<path d="M4726 3488 c-45 -52 -54 -68 -38 -68 9 0 102 105 102 114 0 17 -24 0
-64 -46z"/>
<path d="M4837 3468 c-20 -84 -20 -88 -8 -88 8 0 41 114 41 145 0 39 -18 8
-33 -57z"/>
<path d="M7600 3533 c0 -27 44 -163 51 -156 5 5 4 24 -1 43 -5 19 -14 54 -20
78 -6 23 -15 42 -20 42 -6 0 -10 -3 -10 -7z"/>
<path d="M7697 3534 c-6 -11 78 -114 94 -114 17 0 9 15 -39 69 -27 30 -51 50
-55 45z"/>
<path d="M2293 3463 c-58 -32 -78 -53 -52 -53 20 0 119 64 119 77 0 16 7 18
-67 -24z"/>
<path d="M10120 3481 c0 -9 100 -71 114 -71 21 0 -1 24 -46 50 -57 32 -68 35
-68 21z"/>
<path d="M3688 3475 c-3 -3 2 -39 10 -81 10 -50 18 -72 25 -65 7 7 6 31 -3 73
-13 63 -22 83 -32 73z"/>
<path d="M8758 3405 c-11 -56 -12 -75 -3 -75 6 0 17 28 23 64 14 76 15 86 3
86 -4 0 -15 -34 -23 -75z"/>
<path d="M2359 3453 c-36 -42 -59 -82 -50 -88 11 -6 74 81 69 96 -2 6 -11 2
-19 -8z"/>
<path d="M10090 3465 c0 -14 73 -104 81 -100 11 8 -52 105 -68 105 -7 0 -13
-2 -13 -5z"/>
<path d="M3502 3369 c-27 -30 -38 -49 -29 -49 8 0 20 7 27 15 7 9 19 14 27 11
8 -3 13 2 13 12 0 10 5 23 12 30 8 8 8 15 3 21 -6 6 -27 -10 -53 -40z"/>
<path d="M6167 3353 c-20 -40 -33 -75 -27 -78 12 -7 72 111 67 133 -2 10 -18
-12 -40 -55z"/>
<path d="M6260 3416 c0 -29 68 -148 80 -141 10 6 -59 145 -72 145 -4 0 -8 -2
-8 -4z"/>
<path d="M8918 3408 c-6 -16 14 -68 24 -68 4 0 8 5 8 12 0 6 13 -1 30 -17 47
-45 46 -21 -1 34 -46 53 -55 59 -61 39z"/>
<path d="M2406 3358 c-12 -99 -12 -118 1 -118 7 0 13 8 13 19 0 10 3 46 6 80
8 71 -11 88 -20 19z"/>
<path d="M10049 3395 c-8 -7 14 -155 23 -155 10 0 10 49 2 114 -6 42 -13 54
-25 41z"/>
<path d="M2090 3344 c-62 -42 -92 -75 -56 -61 30 12 136 88 136 97 0 16 -12
11 -80 -36z"/>
<path d="M10310 3378 c1 -7 29 -31 63 -53 77 -50 77 -50 77 -33 0 7 -28 31
-62 53 -74 49 -78 50 -78 33z"/>
<path d="M4796 3308 c-32 -94 -42 -167 -20 -146 12 13 42 148 33 154 -5 3 -11
-1 -13 -8z"/>
<path d="M6230 3266 c0 -31 5 -56 10 -56 6 0 10 22 10 49 0 28 -4 53 -10 56
-6 4 -10 -15 -10 -49z"/>
<path d="M7667 3314 c-7 -13 20 -135 33 -148 19 -19 18 0 -1 69 -26 93 -24 91
-32 79z"/>
<path d="M3365 3252 c-17 -15 -41 -35 -54 -44 -13 -9 -20 -21 -16 -27 6 -11
108 64 114 84 6 20 -15 14 -44 -13z"/>
<path d="M3510 3243 c0 -21 -3 -55 -6 -75 -5 -31 -4 -38 10 -38 13 0 16 12 16
75 0 43 -4 75 -10 75 -5 0 -10 -17 -10 -37z"/>
<path d="M8949 3276 c-2 -2 -3 -36 -1 -75 3 -56 7 -71 19 -71 10 0 13 6 9 16
-3 9 -6 42 -6 75 0 52 -7 69 -21 55z"/>
<path d="M9071 3268 c0 -19 106 -100 114 -87 4 6 5 11 4 13 -2 1 -24 18 -49
37 -60 48 -70 53 -69 37z"/>
<path d="M1883 3194 c-65 -50 -86 -74 -66 -74 14 0 143 105 143 117 0 7 -1 13
-2 13 -2 0 -36 -25 -75 -56z"/>
<path d="M10516 3241 c-5 -7 31 -38 132 -114 8 -6 12 -5 12 5 0 12 -32 40
-122 106 -9 7 -19 8 -22 3z"/>
<path d="M6048 3164 c-37 -54 -45 -74 -30 -74 9 0 82 101 83 115 2 25 -19 9
-53 -41z"/>
<path d="M6380 3211 c0 -20 84 -121 93 -112 5 5 -9 32 -33 63 -43 54 -60 68
-60 49z"/>
<path d="M4798 3174 c-3 -5 -1 -20 4 -34 6 -14 12 -20 14 -14 6 15 -11 60 -18
48z"/>
<path d="M7665 3159 c-4 -12 -2 -26 4 -32 8 -8 11 -2 11 21 0 37 -6 41 -15 11z"/>
<path d="M6230 3050 c0 -53 4 -90 10 -90 6 0 10 37 10 90 0 53 -4 90 -10 90
-6 0 -10 -37 -10 -90z"/>
<path d="M4682 3070 c-17 -21 -28 -41 -23 -44 9 -6 71 61 71 76 0 17 -16 6
-48 -32z"/>
<path d="M7750 3103 c0 -15 52 -73 66 -73 20 0 19 2 -20 44 -34 35 -46 43 -46
29z"/>
<path d="M1735 3080 c-3 -5 -1 -10 4 -10 6 0 11 5 11 10 0 6 -2 10 -4 10 -3 0
-8 -4 -11 -10z"/>
<path d="M10720 3081 c0 -9 142 -81 160 -81 27 0 2 20 -67 53 -83 39 -93 42
-93 28z"/>
<path d="M4840 3054 c0 -9 14 -42 32 -73 38 -68 36 -66 45 -58 7 8 -58 146
-69 147 -5 0 -8 -7 -8 -16z"/>
<path d="M7592 3005 c-33 -68 -39 -91 -22 -80 12 7 70 119 70 135 0 26 -18 5
-48 -55z"/>
<path d="M1638 3037 c-48 -22 -61 -37 -33 -37 20 0 105 42 105 52 0 13 -21 8
-72 -15z"/>
<path d="M4731 3028 c-4 -13 -11 -40 -15 -62 -11 -60 15 -40 30 22 11 53 1 82
-15 40z"/>
<path d="M7723 3029 c3 -13 9 -41 12 -61 4 -21 13 -38 20 -38 17 0 -5 112 -24
118 -10 3 -12 -2 -8 -19z"/>
<path d="M1690 3015 c-7 -9 -10 -18 -7 -22 8 -7 37 15 37 28 0 14 -16 11 -30
-6z"/>
<path d="M10760 3023 c1 -18 28 -44 35 -33 4 6 1 17 -5 25 -13 16 -30 20 -30
8z"/>
<path d="M4555 2955 c-58 -50 -55 -73 3 -27 49 39 65 59 55 65 -5 3 -31 -14
-58 -38z"/>
<path d="M7866 2991 c-7 -10 85 -91 103 -91 21 0 10 15 -44 57 -30 24 -56 39
-59 34z"/>
<path d="M10954 2988 c-8 -13 -9 -12 69 -35 40 -13 70 -17 73 -11 8 12 11 10
-68 35 -42 13 -70 17 -74 11z"/>
<path d="M1438 2973 c-34 -9 -58 -21 -58 -29 0 -10 7 -11 28 -4 15 5 46 14 70
20 23 6 42 15 42 20 0 13 -12 12 -82 -7z"/>
<path d="M1632 2920 c-26 -34 -27 -41 -8 -34 12 5 13 0 5 -31 -10 -34 -6 -56
7 -43 12 13 35 121 27 129 -5 5 -19 -4 -31 -21z"/>
<path d="M10816 2931 c-8 -13 15 -121 26 -121 6 0 7 17 3 40 -6 33 -4 40 10
40 14 0 14 3 -2 25 -19 26 -29 30 -37 16z"/>
<path d="M6194 2833 c-27 -83 -28 -86 -14 -78 16 10 50 85 50 113 0 39 -16 24
-36 -35z"/>
<path d="M4696 2823 c-4 -27 -10 -63 -13 -80 -3 -20 -1 -33 5 -33 13 0 19 20
27 98 8 74 -9 87 -19 15z"/>
<path d="M6250 2856 c0 -17 28 -86 42 -103 6 -7 14 -10 19 -8 7 5 -46 125 -56
125 -3 0 -5 -6 -5 -14z"/>
<path d="M7759 2866 c-9 -9 14 -156 24 -156 5 0 6 29 2 73 -7 67 -15 94 -26
83z"/>
<path d="M1500 2740 c-18 -23 -29 -44 -25 -48 7 -7 75 66 75 81 0 18 -21 4
-50 -33z"/>
<path d="M10930 2775 c0 -10 65 -94 73 -95 16 0 5 27 -24 63 -27 33 -49 47
-49 32z"/>
<path d="M1575 2709 c-34 -52 -23 -65 16 -19 l28 35 1 -72 c0 -39 4 -74 9 -78
17 -10 20 10 14 84 -4 54 -10 74 -23 81 -14 8 -23 2 -45 -31z"/>
<path d="M10870 2745 c0 -15 42 -85 50 -85 14 0 13 5 -10 50 -17 34 -40 53
-40 35z"/>
<path d="M6230 2660 c0 -47 4 -80 10 -80 6 0 10 33 10 80 0 47 -4 80 -10 80
-6 0 -10 -33 -10 -80z"/>
<path d="M10837 2734 c-10 -11 -8 -164 2 -164 4 0 11 35 14 78 5 73 -1 101
-16 86z"/>
<path d="M1373 2682 c-46 -23 -71 -47 -60 -59 5 -5 122 66 120 73 -3 12 -10
11 -60 -14z"/>
<path d="M6086 2645 c-51 -77 -40 -93 13 -21 27 36 40 61 34 67 -6 6 -24 -11
-47 -46z"/>
<path d="M11052 2689 c5 -15 108 -72 116 -64 4 3 0 10 -8 15 -13 8 -12 10 3
10 10 0 15 5 12 10 -3 6 -19 10 -34 10 -15 0 -36 7 -47 15 -23 17 -47 20 -42
4z"/>
<path d="M6355 2663 c27 -47 73 -98 80 -91 10 9 -67 118 -83 118 -10 0 -9 -7
3 -27z"/>
<path d="M1392 2587 c-23 -29 -71 -136 -63 -142 5 -3 27 29 49 70 22 41 36 77
32 80 -4 3 -12 -1 -18 -8z"/>
<path d="M11066 2591 c-9 -13 55 -141 71 -141 8 0 1 24 -19 68 -35 77 -43 88
-52 73z"/>
<path d="M1153 2560 c-29 -17 -53 -35 -53 -40 0 -6 2 -10 5 -10 13 0 115 63
115 71 0 14 -12 11 -67 -21z"/>
<path d="M11250 2582 c0 -7 102 -72 114 -72 21 0 -2 24 -46 50 -55 31 -68 35
-68 22z"/>
<path d="M6230 2474 c0 -34 4 -53 10 -49 6 3 10 28 10 56 0 27 -4 49 -10 49
-5 0 -10 -25 -10 -56z"/>
<path d="M963 2447 c-60 -40 -75 -57 -52 -57 15 0 129 79 129 90 0 16 -12 11
-77 -33z"/>
<path d="M11430 2481 c0 -12 129 -95 137 -87 8 7 12 3 -64 54 -65 44 -73 48
-73 33z"/>
<path d="M6211 2379 c-13 -39 -14 -49 -1 -49 10 0 26 68 17 76 -2 3 -10 -9
-16 -27z"/>
<path d="M6250 2374 c0 -11 7 -29 16 -40 15 -18 15 -18 9 11 -8 37 -25 57 -25
29z"/>
<path d="M6115 2214 c-42 -58 -53 -86 -27 -71 19 13 92 126 83 131 -5 3 -30
-24 -56 -60z"/>
<path d="M6230 2200 c0 -47 4 -80 10 -80 6 0 10 33 10 80 0 47 -4 80 -10 80
-6 0 -10 -33 -10 -80z"/>
<path d="M6306 2271 c-3 -5 16 -39 43 -76 28 -39 52 -62 56 -56 3 6 -15 40
-41 76 -52 71 -50 69 -58 56z"/>
<path d="M6230 1955 c0 -63 4 -105 10 -105 6 0 10 42 10 105 0 63 -4 105 -10
105 -6 0 -10 -42 -10 -105z"/>
</g>
</svg>
