<svg xmlns="http://www.w3.org/2000/svg" version="1.0" preserveAspectRatio="xMidYMid meet" viewBox="55.12 55.07 390.74 389.81">

<g transform="translate(0.000000,500.000000) scale(0.100000,-0.100000)" fill="#000000" stroke="none">
<path d="M1140 4430 c-296 -73 -508 -295 -574 -600 -15 -68 -16 -203 -14 -1365 l3 -1290 26 -75 c89 -260 258 -434 504 -518 l80 -27 1308 -3 c1284 -2 1310 -2 1394 18 135 32 251 98 354 200 137 135 209 283 230 470 6 53 9 566 7 1326 l-4 1239 -23 75 c-48 153 -115 264 -219 361 -75 71 -150 118 -242 156 -135 54 -93 53 -1475 52 -1211 0 -1284 -1 -1355 -19z m2562 -568 c74 -36 132 -95 170 -170 l23 -47 0 -1145 0 -1145 -23 -47 c-38 -75 -96 -134 -170 -170 l-67 -33 -1135 0 -1135 0 -55 26 c-109 52 -183 153 -201 272 -5 37 -7 504 -3 1147 l5 1085 28 60 c46 99 146 178 246 196 22 4 537 6 1145 5 l1105 -1 67 -33z"/>
<path d="M1427 3766 c-67 -18 -126 -62 -162 -120 -29 -48 -30 -53 -33 -194 l-4 -145 44 25 c23 13 88 51 143 83 202 117 313 162 474 189 118 20 182 20 293 1 102 -18 199 -53 280 -100 62 -37 150 -100 183 -132 20 -19 20 -19 71 23 247 200 597 120 728 -167 127 -276 -51 -612 -349 -661 -19 -3 -20 -11 -21 -153 -2 -244 -47 -368 -184 -506 -100 -101 -196 -170 -392 -282 -90 -52 -217 -125 -283 -164 -66 -38 -156 -90 -201 -116 -45 -26 -86 -47 -92 -47 -12 0 -68 93 -247 415 -70 127 -180 322 -243 435 -63 113 -131 234 -150 270 -19 36 -39 69 -44 75 -5 6 -8 -214 -6 -535 3 -505 4 -548 21 -582 25 -49 76 -100 123 -124 38 -18 74 -19 1129 -19 l1090 0 41 22 c48 25 97 78 122 131 16 34 17 112 20 1091 3 1208 8 1129 -81 1216 -29 28 -70 57 -92 65 -57 21 -2103 26 -2178 6z"/>
<path d="M2865 3350 c-39 -22 -52 -37 -63 -68 -7 -22 -32 -62 -54 -87 l-41 -47 28 -54 c16 -30 34 -54 40 -54 7 0 31 20 53 44 l41 45 34 -62 c19 -34 51 -94 70 -133 l36 -71 -52 -28 c-29 -16 -53 -29 -55 -31 -2 -1 11 -29 28 -63 l30 -61 103 55 c56 30 143 76 194 102 l91 47 -25 51 c-40 79 -38 78 -99 44 -29 -17 -58 -28 -63 -24 -6 3 -59 100 -118 215 -59 115 -112 209 -118 209 -5 0 -32 -13 -60 -29z"/>
<path d="M1820 2982 c-52 -28 -96 -56 -98 -63 -1 -8 61 -129 138 -269 77 -140 175 -319 217 -397 43 -78 84 -143 91 -143 20 0 203 113 238 147 44 43 58 98 51 203 -9 148 -97 340 -207 450 -87 88 -141 113 -250 118 l-85 3 -95 -49z"/>
</g>
</svg>