<?xml version="1.0" standalone="no"?>
<!DOCTYPE svg PUBLIC "-//W3C//DTD SVG 20010904//EN"
 "http://www.w3.org/TR/2001/REC-SVG-20010904/DTD/svg10.dtd">
<svg version="1.0" xmlns="http://www.w3.org/2000/svg"
 width="219.000000pt" height="212.000000pt" viewBox="0 0 219.000000 212.000000"
 preserveAspectRatio="xMidYMid meet">

<g transform="translate(0.000000,212.000000) scale(0.100000,-0.100000)"
fill="#000000" stroke="none">
<path d="M902 1740 c-237 -62 -439 -249 -517 -479 -132 -390 79 -816 468 -946
378 -126 780 61 928 431 80 198 70 409 -27 609 -90 186 -274 329 -493 386 -99
26 -259 25 -359 -1z m-74 -520 c3 -27 -31 -90 -48 -90 -11 0 -14 78 -4 105 10
26 48 15 52 -15z m-103 -40 c32 -61 13 -79 -29 -29 -21 24 -24 34 -15 45 17
21 27 17 44 -16z m175 -30 c0 -21 -27 -40 -59 -40 -28 0 -26 14 5 39 33 26 54
27 54 1z m-116 -56 c22 -8 24 -169 2 -177 -26 -10 -36 16 -36 93 0 87 3 96 34
84z m141 -30 c20 -20 10 -31 -30 -36 l-30 -3 38 -22 c20 -12 37 -29 37 -37 0
-26 -30 -46 -68 -46 -46 0 -67 13 -58 35 5 13 13 15 38 10 l33 -6 -33 21 c-26
16 -33 26 -30 48 5 44 71 67 103 36z m73 -64 c3 -75 -8 -101 -35 -78 -18 14
-18 144 0 151 26 11 32 -2 35 -73z m103 67 c23 3 45 1 53 -6 8 -7 17 -8 20 -3
11 18 57 20 77 3 38 -31 38 -141 -1 -141 -17 0 -20 7 -20 39 0 52 -8 71 -30
71 -22 0 -30 -19 -30 -72 0 -35 -2 -39 -22 -36 -20 3 -24 11 -28 53 -4 42 -8
50 -25 50 -17 0 -21 -8 -25 -50 -4 -42 -8 -50 -25 -50 -18 0 -20 8 -23 63 -3
64 11 103 31 83 5 -5 26 -6 48 -4z m328 -23 c12 -15 21 -35 21 -45 0 -49 -44
-92 -86 -84 -11 2 -22 4 -26 4 -4 1 -16 11 -28 23 -24 26 -26 70 -4 103 13 20
25 25 59 25 35 0 48 -5 64 -26z"/>
<path d="M1347 1023 c-15 -14 -6 -52 13 -58 25 -8 40 1 40 24 0 30 -35 53 -53
34z"/>
</g>
</svg>
