<svg xmlns="http://www.w3.org/2000/svg" version="1.0" preserveAspectRatio="xMidYMid meet" viewBox="-0.02 0.04 500.04 499.78">

<g transform="translate(0.000000,500.000000) scale(0.100000,-0.100000)" fill="#000000" stroke="none">
<path d="M196 4984 c-36 -11 -65 -31 -107 -73 -98 -98 -89 145 -89 -2398 0 -1328 4 -2233 9 -2233 5 0 7 -10 4 -21 -4 -14 0 -25 11 -31 9 -5 16 -14 16 -21 0 -7 -4 -6 -10 3 -5 8 -12 12 -15 8 -3 -3 1 -13 10 -21 9 -9 17 -20 18 -24 1 -4 9 -6 16 -5 13 3 13 1 2 -12 -10 -12 -10 -16 -2 -16 7 0 9 -5 6 -10 -4 -6 -1 -9 6 -8 6 2 14 -3 17 -11 3 -9 0 -11 -9 -6 -8 4 0 -5 18 -19 l31 -26 2343 0 c1774 0 2345 3 2356 12 12 10 13 7 8 -18 -4 -19 -4 -25 3 -16 5 8 12 12 16 10 11 -6 73 50 94 86 19 31 19 36 5 36 -9 0 -13 3 -9 8 4 4 13 7 19 7 7 0 12 5 13 10 0 6 4 18 9 29 5 11 4 26 -4 37 -9 15 -8 19 4 19 13 0 15 249 15 2233 0 2542 9 2300 -89 2398 -98 98 147 89 -2415 88 -1975 0 -2257 -2 -2300 -15z m1642 -2043 c-3 -39 -3 -40 39 -51 67 -16 53 -50 -21 -50 -32 0 -32 0 -31 -52 0 -42 -4 -53 -17 -56 -19 -4 -48 44 -48 78 0 28 -11 25 -45 -10 -29 -31 -93 -66 -102 -56 -10 10 17 60 52 99 l35 39 -25 30 c-27 31 -33 58 -13 58 6 0 31 -9 54 -20 l42 -21 26 26 c39 39 59 34 54 -14z m-327 -112 c15 -7 24 -7 35 1 11 10 15 9 20 -4 3 -9 14 -16 24 -16 29 0 33 -19 6 -26 -22 -5 -24 -10 -19 -35 7 -35 -9 -38 -31 -7 l-16 22 -24 -23 c-35 -33 -52 -18 -28 23 17 28 17 34 4 54 -16 25 -4 29 29 11z m750 -68 c100 -38 136 -93 84 -127 -24 -16 -28 -15 -90 15 -118 58 -253 40 -342 -46 -53 -52 -77 -105 -109 -243 -30 -128 -47 -169 -88 -209 -57 -55 -129 -66 -203 -30 -77 37 -139 138 -194 318 -46 148 -42 190 17 191 30 0 39 -14 63 -105 73 -266 177 -387 254 -296 18 21 33 64 52 148 15 65 39 146 55 180 33 71 96 144 155 178 97 58 237 68 346 26z m1711 2 c13 -12 18 -30 18 -70 l0 -53 133 0 c143 0 157 -5 157 -50 0 -45 -14 -50 -157 -50 l-133 0 0 -81 c0 -91 16 -138 58 -165 39 -26 104 -24 142 4 37 28 70 25 86 -6 17 -35 6 -60 -40 -90 -30 -19 -58 -27 -104 -30 -120 -8 -220 69 -242 189 -14 73 -13 355 1 382 22 40 51 48 81 20z m-2402 -78 c0 -10 7 -12 29 -5 50 14 57 -11 11 -35 -29 -15 -30 -17 -15 -38 8 -12 15 -30 15 -40 0 -17 -4 -17 -36 8 -33 25 -38 26 -46 11 -19 -33 -57 -71 -64 -63 -4 4 -2 30 5 58 13 48 12 51 -8 65 -34 24 -26 37 18 30 30 -5 42 -2 56 14 19 21 35 18 35 -5z m-956 -69 c44 -33 73 -89 116 -219 65 -194 159 -277 316 -277 57 0 138 30 199 74 27 19 63 4 71 -30 6 -23 2 -32 -27 -56 -19 -16 -59 -41 -89 -56 -49 -24 -66 -27 -160 -27 -99 0 -109 2 -173 33 -68 34 -134 94 -173 157 -11 19 -40 91 -64 160 -49 140 -74 175 -124 175 -39 0 -76 -36 -105 -101 -24 -53 -57 -188 -67 -272 -5 -46 -11 -61 -30 -74 -22 -14 -26 -14 -49 1 -30 20 -31 41 -10 157 38 204 106 337 190 376 49 22 136 12 179 -21z m1562 9 c61 -18 118 -64 146 -118 18 -35 23 -64 26 -170 4 -112 2 -130 -13 -147 -21 -24 -67 -26 -85 -5 -11 13 -16 13 -47 0 -82 -34 -193 -13 -255 50 -129 129 -62 360 114 394 61 12 59 12 114 -4z m256 3 c8 -7 30 -58 47 -113 37 -117 85 -211 122 -237 21 -16 29 -17 52 -7 30 13 82 108 117 209 48 142 51 148 72 153 34 9 58 -10 58 -45 0 -39 -60 -219 -100 -297 -54 -109 -148 -153 -234 -111 -71 34 -110 95 -170 269 -43 122 -46 168 -13 181 30 12 31 12 49 -2z m2210 -19 c48 -24 85 -63 109 -114 25 -54 28 -295 4 -315 -22 -18 -66 -15 -81 4 -11 16 -14 16 -45 1 -24 -13 -51 -16 -105 -13 -61 3 -79 8 -116 33 -89 63 -129 178 -93 271 53 138 200 198 327 133z m-3474 -12 c62 -41 102 -116 102 -194 0 -99 -40 -166 -123 -208 -134 -66 -281 -1 -324 144 -13 46 -13 63 -3 108 15 67 61 129 120 160 64 35 168 30 228 -10z m2051 14 c44 -23 98 -81 117 -127 17 -41 18 -106 2 -122 -8 -8 -61 -12 -172 -12 l-159 0 24 -26 c29 -32 71 -54 100 -54 12 0 42 10 66 22 51 26 76 18 81 -26 7 -53 -63 -96 -156 -96 -48 0 -67 5 -100 28 -130 87 -147 268 -35 374 61 58 161 75 232 39z m496 0 c45 -20 91 -69 112 -118 9 -22 13 -77 13 -167 0 -128 -1 -136 -22 -150 -19 -13 -25 -14 -43 -2 -18 12 -21 27 -25 144 -4 112 -8 135 -26 159 -41 55 -114 69 -168 34 -49 -32 -55 -55 -56 -188 0 -119 -1 -122 -26 -142 -20 -15 -31 -18 -45 -11 -31 17 -33 30 -30 160 2 106 6 133 25 176 23 50 68 93 116 113 41 16 131 12 175 -8z m-3639 -2358 c1 -13 -2 -20 -7 -17 -12 7 -11 -3 1 -26 8 -15 6 -21 -11 -31 -17 -9 -20 -8 -13 2 11 18 13 72 3 84 -5 7 -1 11 9 11 11 0 18 -9 18 -23z m89 -63 c-3 -5 -10 -10 -16 -10 -5 0 -9 5 -9 10 0 6 7 10 16 10 8 0 12 -4 9 -10z m4655 6 c0 -2 -7 -6 -15 -10 -8 -3 -15 -1 -15 4 0 6 7 10 15 10 8 0 15 -2 15 -4z m55 -16 c-3 -5 -1 -10 6 -10 12 0 49 -38 49 -50 0 -13 -25 -27 -42 -25 -19 3 -25 -11 -8 -17 6 -2 1 -9 -11 -16 -19 -12 -20 -11 -14 7 4 14 2 21 -7 21 -7 0 -2 6 12 14 16 8 29 9 38 3 15 -11 15 -6 2 28 -6 17 -16 25 -24 22 -20 -8 -28 4 -15 20 13 15 23 18 14 3z m-4747 -24 c-4 -18 1 -27 16 -34 14 -7 16 -11 6 -11 -13 -1 -13 -2 0 -11 13 -9 13 -10 0 -10 -12 0 -12 -2 -2 -9 11 -7 11 -9 -1 -14 -11 -4 -15 0 -12 13 2 10 -3 21 -12 24 -11 5 -14 2 -9 -11 6 -15 5 -16 -5 -5 -10 9 -10 15 -2 23 9 9 9 16 0 31 -10 15 -9 21 3 28 21 14 23 13 18 -14z m4688 -38 c-4 7 -1 12 8 12 21 0 20 -10 -4 -40 -12 -15 -18 -18 -14 -7 3 9 1 17 -5 17 -6 0 -11 7 -11 16 0 14 2 15 17 3 11 -10 14 -10 9 -1z"/>
<path d="M2076 2529 c-62 -18 -104 -88 -92 -153 8 -42 63 -95 107 -102 48 -8 104 17 129 58 60 99 -34 229 -144 197z"/>
<path d="M4504 2528 c-49 -13 -94 -70 -94 -119 0 -82 66 -146 140 -136 72 9 116 60 114 131 -2 86 -80 146 -160 124z"/>
<path d="M994 2520 c-38 -15 -74 -68 -74 -110 0 -54 14 -84 51 -110 60 -43 152 -23 185 41 53 104 -54 223 -162 179z"/>
<path d="M3059 2505 c-20 -13 -39 -31 -42 -40 -6 -13 9 -15 113 -15 66 0 120 4 120 8 0 11 -39 46 -67 61 -36 18 -86 13 -124 -14z"/>
<path d="M4810 42 c0 -7 -3 -11 -7 -10 -5 0 -15 -2 -23 -5 -8 -3 -26 -8 -40 -10 -19 -3 -16 -5 11 -6 36 -1 80 21 66 35 -4 4 -7 2 -7 -4z"/>
<path d="M215 29 c-4 -6 -5 -12 -2 -15 2 -3 7 2 10 11 7 17 1 20 -8 4z"/>
<path d="M236 23 c-6 -14 -5 -15 5 -6 7 7 10 15 7 18 -3 3 -9 -2 -12 -12z"/>
<path d="M300 35 c0 -3 7 -14 16 -23 15 -14 16 -14 13 3 -4 17 -29 35 -29 20z"/>
<path d="M275 20 c3 -5 8 -10 11 -10 2 0 4 5 4 10 0 6 -5 10 -11 10 -5 0 -7 -4 -4 -10z"/>
</g>
</svg>