<svg xmlns="http://www.w3.org/2000/svg" version="1.0" preserveAspectRatio="xMidYMid meet" viewBox="6.91 3.52 286.61 285.98">

<g transform="translate(0.000000,300.000000) scale(0.100000,-0.100000)" fill="#000000" stroke="none">
<path d="M1404 2960 c-126 -11 -320 -52 -359 -76 -11 -7 -49 -22 -85 -34 -36 -12 -84 -32 -107 -46 -23 -13 -47 -24 -53 -24 -9 0 -72 -42 -90 -60 -3 -3 -21 -16 -40 -29 -19 -14 -39 -30 -43 -38 -4 -7 -15 -13 -24 -13 -18 0 -242 -228 -243 -246 0 -11 -61 -97 -72 -102 -5 -2 -8 -8 -8 -14 0 -5 -16 -36 -35 -67 -45 -73 -87 -184 -125 -331 -69 -266 -68 -457 4 -716 43 -153 82 -257 120 -314 20 -30 36 -59 36 -65 0 -6 16 -30 35 -52 19 -23 35 -44 35 -48 0 -14 105 -132 173 -195 39 -36 81 -74 93 -86 12 -11 38 -28 58 -38 20 -9 36 -21 36 -26 0 -5 9 -12 21 -15 12 -4 37 -18 58 -32 61 -42 201 -105 260 -118 31 -7 101 -26 156 -41 95 -27 110 -29 300 -29 l200 0 131 38 c72 20 138 37 146 37 18 0 178 74 228 105 151 95 214 140 252 182 4 5 18 19 32 33 14 14 46 45 70 70 48 47 196 254 196 273 0 6 11 27 25 47 14 20 31 59 39 86 8 27 26 81 41 119 39 101 73 324 70 460 -3 141 -37 333 -75 426 -16 40 -32 85 -35 101 -8 34 -95 201 -107 206 -10 4 -78 109 -78 120 0 9 -70 82 -79 82 -3 0 -31 30 -61 66 -30 36 -71 74 -90 84 -19 10 -47 30 -62 44 -15 14 -30 26 -34 26 -4 0 -17 9 -29 20 -32 30 -108 68 -255 127 -162 65 -273 89 -495 107 -22 2 -81 0 -131 -4z m-730 -1256 c12 -11 16 -36 16 -95 0 -43 4 -79 8 -79 4 0 16 13 25 29 19 33 47 46 77 36 28 -9 25 -33 -10 -63 -16 -15 -30 -34 -30 -43 0 -17 46 -69 61 -69 14 0 21 -41 9 -55 -22 -27 -56 -17 -90 25 -37 47 -50 50 -50 12 0 -15 -5 -33 -12 -40 -17 -17 -55 -15 -62 4 -12 31 -7 329 6 342 16 16 33 15 52 -4z m513 8 c7 -5 13 -40 15 -92 3 -91 17 -111 42 -61 17 32 45 46 76 36 28 -9 25 -33 -10 -63 -39 -34 -38 -51 5 -92 44 -43 46 -83 4 -88 -21 -2 -33 6 -59 38 -37 47 -53 47 -60 -1 -4 -27 -10 -35 -29 -37 -44 -7 -51 18 -51 184 0 125 3 155 16 168 17 17 32 20 51 8z m717 -8 c9 -8 16 -22 16 -29 0 -35 -53 -58 -78 -33 -25 25 -2 78 33 78 7 0 21 -7 29 -16z m118 -1 c14 -13 18 -31 18 -95 0 -82 9 -95 36 -53 21 33 49 48 74 40 27 -9 25 -31 -5 -59 -36 -34 -34 -80 5 -103 35 -20 47 -48 30 -68 -22 -27 -55 -18 -81 22 -28 44 -59 56 -59 23 0 -57 -55 -83 -79 -37 -18 33 -11 308 8 330 17 21 30 21 53 0z m-1010 -109 c31 -5 42 -14 64 -51 30 -52 28 -96 -6 -141 -30 -37 -58 -51 -105 -51 -77 0 -125 50 -125 131 0 90 62 130 172 112z m530 -4 c69 -20 98 -110 57 -177 -26 -42 -66 -63 -120 -63 -36 0 -48 6 -85 44 -55 54 -59 93 -14 154 36 50 86 63 162 42z m256 -4 c23 -14 12 -36 -28 -56 -40 -20 -40 -21 -40 -78 0 -62 -19 -102 -49 -102 -34 0 -41 21 -41 127 0 83 3 104 16 111 18 10 125 9 142 -2z m103 -7 c6 -12 12 -67 12 -123 l2 -101 -37 -3 c-27 -2 -39 2 -46 15 -12 22 4 201 20 220 16 19 36 16 49 -8z m492 5 c24 -9 57 -74 57 -111 -1 -93 -120 -153 -205 -104 -85 49 -80 194 8 220 30 9 111 7 140 -5z"/>
<path d="M921 1516 c-7 -8 -11 -30 -9 -48 4 -41 43 -59 83 -38 33 17 40 45 21 75 -19 29 -75 35 -95 11z"/>
<path d="M1434 1505 c-21 -32 -11 -60 27 -75 39 -16 76 -1 85 35 15 59 -78 92 -112 40z"/>
<path d="M2276 1514 c-9 -8 -16 -23 -16 -32 0 -26 29 -62 48 -62 30 0 62 29 62 57 0 46 -61 70 -94 37z"/>
</g>
</svg>