<?xml version="1.0" standalone="no"?>
<!DOCTYPE svg PUBLIC "-//W3C//DTD SVG 20010904//EN"
 "http://www.w3.org/TR/2001/REC-SVG-20010904/DTD/svg10.dtd">
<svg version="1.0" xmlns="http://www.w3.org/2000/svg"
 width="350.000000pt" height="350.000000pt" viewBox="0 0 350.000000 350.000000"
 preserveAspectRatio="xMidYMid meet">

<g transform="translate(0.000000,350.000000) scale(0.100000,-0.100000)"
fill="#000000" stroke="none">
<path d="M865 3180 c-113 -25 -144 -35 -195 -63 -183 -99 -299 -247 -340 -433
-18 -84 -19 -133 -19 -934 -1 -946 -2 -930 69 -1075 58 -118 108 -171 206
-217 45 -21 108 -45 141 -53 70 -18 224 -34 217 -23 -3 4 12 8 33 8 335 1
1545 12 1623 15 126 5 192 13 204 25 5 5 15 6 24 3 10 -4 13 -2 8 5 -5 8 2 11
23 8 17 -2 28 0 25 5 -2 4 12 11 33 15 21 4 50 15 65 26 37 25 108 121 137
183 13 28 28 58 33 67 4 10 15 59 24 110 15 83 16 188 11 948 -6 940 -2 881
-67 1025 -38 83 -130 193 -205 244 -53 36 -176 90 -234 102 -60 12 -1762 21
-1816 9z m1806 -30 c30 -5 63 -14 74 -19 66 -29 152 -75 161 -87 6 -8 14 -14
18 -14 9 0 67 -60 58 -60 -4 -1 5 -8 21 -16 15 -8 27 -21 27 -29 0 -8 6 -18
13 -22 19 -12 82 -132 93 -175 2 -10 6 -28 9 -40 28 -115 -18 -518 -61 -535
-8 -3 -12 -9 -9 -13 2 -4 -4 -15 -15 -25 -11 -10 -20 -27 -20 -37 0 -11 -4
-17 -9 -14 -4 3 -6 -6 -3 -19 3 -18 0 -25 -12 -25 -9 0 -16 -8 -16 -19 0 -15
-5 -18 -22 -14 -17 4 -20 2 -9 -5 12 -9 12 -13 -2 -26 -9 -9 -14 -23 -11 -30
3 -8 -3 -16 -15 -19 -12 -3 -21 -12 -21 -21 0 -9 -8 -16 -20 -16 -11 0 -20 -7
-20 -15 0 -25 -124 -21 -147 5 -16 16 -30 19 -93 17 -72 -2 -146 16 -135 33 2
4 -1 15 -8 24 -11 15 -17 14 -72 -13 -74 -37 -173 -53 -207 -35 -13 7 -28 13
-33 14 -6 0 -21 -42 -34 -92 -28 -112 -43 -138 -77 -138 -32 0 -84 50 -84 82
0 13 9 57 20 98 11 41 20 78 20 82 0 4 -25 -4 -55 -18 -72 -33 -152 -42 -194
-21 l-31 15 -15 -51 c-8 -29 -20 -74 -26 -102 -20 -84 -47 -101 -105 -66 -43
26 -47 54 -20 154 l23 86 -42 -25 c-53 -31 -82 -30 -116 2 l-27 26 -30 -22
c-16 -12 -47 -24 -70 -27 -37 -5 -45 -2 -76 29 -62 62 -59 173 8 313 51 109
122 167 203 169 30 1 48 -5 65 -21 21 -19 25 -20 48 -8 26 15 75 11 98 -7 20
-17 14 -51 -27 -154 -22 -55 -43 -116 -47 -138 -6 -36 -5 -37 13 -27 30 15 46
45 88 158 62 168 93 202 157 171 30 -14 35 -13 80 10 36 19 55 23 82 18 35 -7
76 -46 76 -72 0 -8 4 -14 8 -14 24 0 -20 -191 -59 -258 -18 -31 -18 -32 -1
-23 10 5 26 27 34 48 45 107 69 177 64 190 -3 8 -2 12 3 8 5 -3 15 11 22 32
13 41 18 133 7 140 -5 2 -8 10 -8 16 0 7 9 1 20 -13 18 -22 20 -23 17 -5 -1
11 -6 25 -10 32 -4 6 -4 18 -1 26 3 8 1 18 -5 22 -6 3 -10 27 -9 53 l1 47 6
-45 7 -45 4 48 c4 33 2 47 -7 47 -9 0 -12 46 -10 195 2 178 6 218 20 183 3 -7
6 0 6 15 1 16 -3 26 -9 22 -5 -3 -10 1 -10 9 0 9 6 16 14 16 8 0 17 7 20 16 3
8 10 13 15 9 6 -3 14 3 20 12 6 10 11 15 11 10 0 -4 13 -1 29 7 55 29 283 44
382 26z m-1891 -211 c0 -12 5 -19 13 -16 6 2 11 11 9 21 -2 9 2 16 8 16 5 0
10 -5 10 -11 0 -7 11 -9 30 -5 25 4 30 2 30 -13 0 -11 -5 -21 -12 -23 -8 -3
-6 -12 6 -29 17 -22 18 -22 13 -3 -2 12 -1 28 4 35 15 23 29 -9 18 -39 -6 -17
-6 -29 2 -39 9 -10 9 -17 1 -25 -20 -20 -13 -30 16 -24 l27 5 -28 -13 -28 -12
23 -12 23 -11 -25 -1 -25 -1 25 -14 c17 -10 20 -14 9 -15 -10 0 -20 -12 -23
-26 -5 -20 -10 -24 -19 -15 -17 17 -22 14 -53 -26 -15 -20 -22 -33 -16 -29 7
4 12 2 12 -4 0 -8 6 -8 21 0 11 6 25 9 32 6 7 -2 3 -5 -8 -5 -15 -1 -17 -3 -7
-10 8 -4 14 -12 15 -17 1 -5 6 -7 12 -5 28 11 180 12 224 1 213 -51 240 -257
50 -380 -34 -22 -68 -40 -75 -40 -7 0 -19 -7 -27 -15 -13 -12 -13 -24 -2 -84
20 -104 57 -166 117 -197 35 -18 99 -18 144 1 67 28 88 -13 32 -61 -93 -78
-218 -99 -302 -50 -63 37 -134 160 -137 239 0 12 -8 -3 -17 -34 -27 -88 -44
-101 -110 -78 -45 15 -58 55 -44 134 24 128 132 419 162 435 21 11 99 13 124
4 23 -9 20 -40 -13 -119 -16 -39 -32 -81 -36 -93 -6 -21 -5 -22 12 -14 62 33
122 126 123 188 0 57 -37 84 -116 85 -80 2 -183 -100 -208 -206 -10 -40 -24
-55 -51 -55 -22 0 -75 44 -75 62 0 5 -5 6 -11 3 -7 -5 -8 -1 -1 11 5 11 14 38
19 62 9 35 8 44 -6 53 -12 8 -10 8 9 3 22 -6 23 -5 11 10 -12 14 -12 16 2 10
12 -4 14 -1 10 15 -5 21 11 29 22 11 4 -6 11 -8 16 -4 6 4 3 14 -7 25 -13 14
-20 16 -30 8 -8 -6 -20 -9 -28 -6 -9 4 -12 0 -9 -13 4 -14 -3 -20 -27 -25 -17
-4 -34 -4 -37 -1 -4 3 3 6 15 6 12 0 22 5 22 11 0 6 -11 8 -28 5 -21 -5 -31
-2 -42 15 -8 12 -21 28 -28 35 -11 12 -10 14 5 15 10 0 13 3 6 6 -7 2 -13 14
-13 26 0 12 -11 35 -25 51 -31 36 -31 50 -1 103 17 29 21 44 13 47 -9 5 -9 8
1 12 6 3 12 14 12 25 0 11 7 22 16 26 8 3 13 12 10 20 -3 8 6 26 20 41 24 26
25 26 39 8 13 -17 15 -17 21 -3 6 17 40 33 63 28 7 -1 10 2 6 8 -4 7 7 11 29
11 30 0 36 -4 36 -21z m170 -48 c0 -6 -4 -13 -10 -16 -5 -3 -10 1 -10 9 0 9 5
16 10 16 6 0 10 -4 10 -9z m30 -45 c0 -8 -4 -18 -10 -21 -5 -3 -10 3 -10 14 0
12 5 21 10 21 6 0 10 -6 10 -14z m-306 -438 c-3 -5 -10 -6 -15 -3 -5 4 -9 1
-9 -6 0 -7 -3 -10 -6 -6 -9 9 3 24 20 24 8 0 13 -4 10 -9z m1803 -481 c0 -8
-6 -14 -14 -14 -17 0 -17 14 0 20 6 3 12 6 13 6 0 1 1 -5 1 -12z m-932 -425
c28 -10 85 -44 128 -76 l77 -58 82 61 c176 131 264 121 487 -57 171 -137 235
-150 345 -71 31 22 56 36 57 32 4 -30 -8 -69 -43 -143 -132 -275 -436 -373
-723 -234 -57 27 -165 123 -192 169 -11 20 -12 19 -29 -5 -77 -106 -203 -187
-335 -216 -267 -57 -516 90 -606 355 -12 36 -19 69 -17 73 3 4 26 -8 51 -27
78 -60 151 -67 233 -25 19 10 69 47 111 83 101 83 171 128 228 143 62 17 87
16 146 -4z"/>
<path d="M2193 2900 c0 -25 2 -35 4 -22 2 12 2 32 0 45 -2 12 -4 2 -4 -23z"/>
<path d="M2180 2715 c0 -8 5 -15 10 -15 6 0 10 7 10 15 0 8 -4 15 -10 15 -5 0
-10 -7 -10 -15z"/>
<path d="M2180 2660 c0 -5 5 -10 10 -10 6 0 10 5 10 10 0 6 -4 10 -10 10 -5 0
-10 -4 -10 -10z"/>
<path d="M2187 2386 c-3 -8 -2 -18 3 -21 13 -8 24 15 12 27 -6 6 -11 4 -15 -6z"/>
<path d="M1430 2238 c-50 -87 -91 -248 -62 -248 27 0 101 167 109 247 7 69 -7
69 -47 1z"/>
<path d="M1906 2257 c-41 -53 -86 -160 -93 -218 l-6 -54 22 20 c47 41 135 265
110 280 -4 3 -19 -9 -33 -28z"/>
<path d="M2303 2203 c4 -3 -1 -12 -11 -20 -15 -13 -15 -13 6 -3 19 9 23 30 5
30 -4 0 -3 -3 0 -7z"/>
<path d="M2282 2152 c-18 -18 -58 -150 -48 -159 9 -10 27 9 22 24 -3 8 -2 11
4 8 15 -9 31 30 17 44 -9 10 -8 11 7 5 16 -6 18 -4 13 10 -4 9 -3 15 2 12 4
-3 13 6 19 19 7 16 8 26 1 30 -5 4 -7 11 -4 16 11 16 -14 10 -33 -9z"/>
<path d="M2700 1945 c-8 -9 -8 -15 -2 -15 12 0 26 19 19 26 -2 2 -10 -2 -17
-11z"/>
<path d="M2755 1941 c-3 -5 -1 -12 5 -16 5 -3 10 1 10 9 0 18 -6 21 -15 7z"/>
<path d="M2676 1919 c3 -5 -1 -9 -8 -9 -9 0 -9 -3 2 -10 19 -12 33 -13 26 -1
-4 5 -1 11 6 13 7 3 2 7 -10 10 -12 4 -20 2 -16 -3z"/>
<path d="M2830 1910 c0 -5 4 -10 9 -10 6 0 13 5 16 10 3 6 -1 10 -9 10 -9 0
-16 -4 -16 -10z"/>
<path d="M2618 1883 c7 -3 16 -2 19 1 4 3 -2 6 -13 5 -11 0 -14 -3 -6 -6z"/>
<path d="M600 2874 c0 -8 5 -12 10 -9 6 3 10 10 10 16 0 5 -4 9 -10 9 -5 0
-10 -7 -10 -16z"/>
<path d="M861 2844 c0 -11 3 -14 6 -6 3 7 2 16 -1 19 -3 4 -6 -2 -5 -13z"/>
<path d="M809 2591 c-1 -3 -2 -15 -3 -26 -1 -11 -7 -19 -13 -17 -7 1 -13 -2
-13 -8 0 -5 -8 -6 -17 -3 -15 6 -16 5 -3 -9 11 -12 19 -13 32 -4 10 6 18 14
18 19 0 4 5 5 11 1 8 -4 8 0 0 15 -8 14 -8 21 -1 21 6 0 13 -7 16 -15 5 -12
10 -13 20 -5 19 16 7 38 -22 38 -13 0 -25 -3 -25 -7z"/>
<path d="M730 2526 c0 -2 8 -10 18 -17 15 -13 16 -12 3 4 -13 16 -21 21 -21
13z"/>
</g>
</svg>
